<svg width="1651" height="1040" viewBox="0 0 1651 1040" fill="none" xmlns="http://www.w3.org/2000/svg">
    <rect width="1651" height="1040" fill="#FD8469"/>
    <path d="M768.128 732.447L745.659 784.404H704.936L804.638 557.617H845.362L945.064 784.404H904.34L881.872 732.447H768.128ZM866.425 696.638L825 603.255L783.574 696.638H866.425Z" fill="#FF9C86"/>
    <path d="M881.872 306.957L904.341 255H945.064L845.362 482.489H804.638L704.936 255.702H745.66L768.128 307.66H881.872V306.957ZM783.575 342.766L825 436.149L866.426 342.766H783.575Z" fill="#FF9C86"/>
    <path d="M1081.98 680.489H568.021C561 680.489 555.383 674.872 555.383 667.851V295.021C555.383 288 561 282.383 568.021 282.383H1081.28C1088.3 282.383 1093.91 288 1093.91 295.021V667.851C1094.62 674.872 1089 680.489 1081.98 680.489Z" fill="#FF9C86"/>
    <path d="M1122 316.085V278.872C1122 274.66 1118.49 271.149 1114.28 271.149H535.723C531.511 271.149 528 274.66 528 278.872V316.085C528 320.298 531.511 323.808 535.723 323.808H1114.28C1118.49 323.808 1122 320.298 1122 316.085Z" fill="#FF9C86"/>
    <path d="M675.447 423.511H634.021C630.511 423.511 627 420.702 627 416.489V375.064C627 371.553 629.809 368.043 634.021 368.043H675.447C678.957 368.043 682.468 370.851 682.468 375.064V416.489C681.766 420.702 678.957 423.511 675.447 423.511Z" fill="#FF9C86"/>
    <path d="M675.447 524.617H634.021C630.511 524.617 627 521.809 627 517.596V476.17C627 472.66 629.809 469.149 634.021 469.149H675.447C678.957 469.149 682.468 471.957 682.468 476.17V517.596C681.766 521.106 678.957 524.617 675.447 524.617Z" fill="#FF9C86"/>
    <path d="M675.447 625.021H634.021C630.511 625.021 627 622.213 627 618V576.574C627 573.064 629.809 569.553 634.021 569.553H675.447C678.957 569.553 682.468 572.362 682.468 576.574V618C681.766 622.213 678.957 625.021 675.447 625.021Z" fill="#FF9C86"/>
    <path d="M1023 368.745H721.085V382.787H1023V368.745Z" fill="#FF9C86"/>
    <path d="M903.638 409.468H721.085V423.511H903.638V409.468Z" fill="#FF9C86"/>
    <path d="M1023 469.851H721.085V483.894H1023V469.851Z" fill="#FF9C86"/>
    <path d="M903.638 510.574H721.085V524.617H903.638V510.574Z" fill="#FF9C86"/>
    <path d="M1023 570.255H721.085V584.298H1023V570.255Z" fill="#FF9C86"/>
    <path d="M903.638 610.979H721.085V625.021H903.638V610.979Z" fill="#FF9C86"/>
</svg>