<svg width="512" height="512" viewBox="0 0 512 512" fill="none" xmlns="http://www.w3.org/2000/svg">
    <path d="M9.70667 352.263L243.712 508.296C251.691 513.203 260.224 513.267 268.288 508.296L502.293 352.263C508.288 348.274 512 341.127 512 333.98V177.99C512 170.844 508.288 163.697 502.293 159.708L268.288 3.69604C260.309 -1.21066 251.776 -1.25332 243.712 3.69604L9.70667 159.708C3.712 163.697 0 170.844 0 177.99V333.98C0 341.127 3.712 348.274 9.70667 352.263ZM234.005 448.861L61.7173 334.002L138.581 282.567L234.005 346.29V448.861ZM277.995 448.861V346.29L373.419 282.567L450.283 334.002L277.995 448.861ZM468.011 292.828L412.864 255.985L468.011 219.121V292.828ZM277.995 63.131L450.283 177.99L373.419 229.425L277.995 165.702V63.131ZM256 203.974L333.717 255.985L256 307.996L178.283 255.985L256 203.974ZM234.005 63.131V165.702L138.581 229.425L61.7173 177.99L234.005 63.131ZM44.0107 219.164V219.142L99.1573 256.007L44.0107 292.871V219.164Z" fill="#606060"/>
</svg>