<svg width="1610" height="817" viewBox="0 0 1610 817" fill="none" xmlns="http://www.w3.org/2000/svg">
    <path fill-rule="evenodd" clip-rule="evenodd" d="M0 0H1610V817H0V0ZM985.589 389.837C981.092 383.623 980.709 375.397 984.364 368.653C992.48 353.681 998.068 337.138 1000.56 319.597C1006.04 317.576 1011.78 314.523 1017.66 310.231C1023.69 305.826 1029.8 303.027 1035.84 301.463C1043.62 299.451 1049.08 292.496 1049.08 284.464C1049.08 276.74 1044.05 269.867 1036.65 267.678C1031.72 266.222 1025.47 265.353 1018.13 266.353C1018.13 266.353 1043.52 244.215 1037.25 218.6C1035.22 210.32 1025.39 206.874 1018.41 211.768C1009.39 218.093 995.388 224.762 979.556 220.997C953.198 179.138 906.321 151.392 853.461 152.01L853.278 152.012C843.256 152.142 833.476 153.276 824.034 155.318C809.524 158.457 795.813 163.741 783.249 170.821C738.58 195.993 708.414 243.874 708.414 298.8C708.414 331.353 719.009 361.43 736.94 385.773C741.786 392.352 743.393 400.512 741.779 408.076C740.811 412.615 738.682 416.94 735.399 420.58C734.984 421.041 734.553 421.497 734.107 421.946C730.334 425.746 725.452 429.085 719.154 431.134C702.372 436.594 675.532 432.89 632.804 404.303C626.152 399.853 618.342 397.439 610.339 397.439C604.182 397.439 598.317 398.833 593.064 401.34C585.552 404.925 579.29 410.786 575.214 418.105C572.905 422.251 571.297 426.865 570.561 431.798C567.653 451.288 565.433 477.235 567.713 504.717C573.33 572.438 606.278 649.478 723.628 662.184C734.627 663.375 746.366 664 758.894 664H789.799H829.977C1017.98 664 1068.05 503.801 985.589 389.837ZM496.739 443.975C521.084 443.975 533.256 454.31 533.256 474.98C533.256 491.516 528.663 502.999 519.476 509.43C510.289 515.861 495.82 519.076 476.069 519.076H461.6L458.844 555.593C457.466 576.722 452.873 590.962 445.064 598.311C437.715 605.66 425.542 609.335 408.547 609.335C384.202 609.335 372.03 594.407 372.03 564.55C372.03 559.497 372.26 555.593 372.719 552.837L376.164 519.076C309.561 519.076 259.034 518.846 224.584 518.387C214.479 518.387 205.522 513.794 197.713 504.607C189.904 495.42 186 483.478 186 468.779C186 460.052 187.608 450.865 190.823 441.219C211.034 382.424 241.35 315.591 281.771 240.72C290.498 224.643 299.226 213.39 307.953 206.959C317.14 200.069 331.149 196.624 349.982 196.624C360.087 196.624 367.666 198.921 372.719 203.514C378.231 208.107 380.987 214.079 380.987 221.428C380.987 229.237 378.69 237.045 374.097 244.854C329.082 327.075 297.388 393.448 279.015 443.975H385.121C390.633 401.257 398.212 360.606 407.858 322.022C411.533 307.783 417.504 296.988 425.772 289.639C434.04 281.83 445.523 277.926 460.222 277.926C483.648 277.926 495.361 288.031 495.361 308.242C495.361 314.213 494.902 318.807 493.983 322.022C485.715 361.065 478.366 401.716 471.935 443.975H496.739ZM1424.26 474.98C1424.26 454.31 1412.09 443.975 1387.74 443.975H1362.94C1369.37 401.716 1376.72 361.065 1384.99 322.022C1385.9 318.807 1386.36 314.213 1386.36 308.242C1386.36 288.031 1374.65 277.926 1351.22 277.926C1336.53 277.926 1325.04 281.83 1316.77 289.639C1308.51 296.988 1302.53 307.783 1298.86 322.022C1289.21 360.606 1281.64 401.257 1276.12 443.975H1170.02C1188.39 393.448 1220.08 327.075 1265.1 244.854C1269.69 237.045 1271.99 229.237 1271.99 221.428C1271.99 214.079 1269.23 208.107 1263.72 203.514C1258.67 198.921 1251.09 196.624 1240.98 196.624C1222.15 196.624 1208.14 200.069 1198.96 206.959C1190.23 213.39 1181.5 224.643 1172.77 240.72C1132.35 315.591 1102.03 382.424 1081.82 441.219C1078.61 450.865 1077 460.052 1077 468.779C1077 483.478 1080.9 495.42 1088.71 504.607C1096.52 513.794 1105.48 518.387 1115.58 518.387C1150.03 518.846 1200.56 519.076 1267.17 519.076L1263.72 552.837C1263.26 555.593 1263.03 559.497 1263.03 564.55C1263.03 594.407 1275.2 609.335 1299.55 609.335C1316.54 609.335 1328.72 605.66 1336.07 598.311C1343.87 590.962 1348.47 576.722 1349.85 555.593L1352.6 519.076H1367.07C1386.82 519.076 1401.29 515.861 1410.48 509.43C1419.66 502.999 1424.26 491.516 1424.26 474.98Z" fill="white"/>
</svg>