<svg width="512" height="512" viewBox="0 0 512 512" fill="none" xmlns="http://www.w3.org/2000/svg">
    <path d="M256 0C114.56 0 0 117.536 0 262.496C0 378.496 73.344 476.865 175.04 511.547C187.84 514.018 192.533 505.893 192.533 498.925C192.533 492.692 192.32 476.175 192.213 454.293C121.003 470.12 105.984 419.077 105.984 419.077C94.336 388.78 77.504 380.677 77.504 380.677C54.3147 364.405 79.296 364.739 79.296 364.739C105.003 366.564 118.507 391.785 118.507 391.785C141.333 431.921 178.432 420.323 193.067 413.623C195.371 396.638 201.963 385.085 209.28 378.518C152.427 371.951 92.672 349.379 92.672 248.806C92.672 220.157 102.592 196.739 119.019 178.374C116.139 171.74 107.499 145.05 121.259 108.899C121.259 108.899 142.699 101.864 191.659 135.812C212.139 129.979 233.899 127.085 255.659 126.952C277.419 127.085 299.179 129.979 319.659 135.812C368.299 101.864 389.739 108.899 389.739 108.899C403.499 145.05 394.859 171.74 392.299 178.374C408.619 196.739 418.539 220.157 418.539 248.806C418.539 349.646 358.699 371.84 301.739 378.296C310.699 386.176 319.019 402.27 319.019 426.868C319.019 461.995 318.699 490.222 318.699 498.747C318.699 505.626 323.179 513.84 336.299 511.213C438.72 476.754 512 378.318 512 262.496C512 117.536 397.376 0 256 0V0Z" fill="#606060"/>
</svg>