<svg width="1651" height="1040" viewBox="0 0 1651 1040" fill="none" xmlns="http://www.w3.org/2000/svg">
    <rect width="1651" height="1040" fill="#324A5E"/>
    <path d="M618.78 655.563L565.295 728.4L613.686 693.473L578.338 741.442L626.728 706.515L591.38 754.485L639.35 719.136L604.422 767.527L652.392 732.178L617.464 780.569L690.301 727.085L618.78 655.563Z" fill="#526D84"/>
    <path d="M807.308 773.316C797.005 783.619 785.44 792.659 773.93 799.963C790.685 736.087 775.938 666.691 727.556 618.309C679.173 569.926 609.777 555.179 545.454 572.383C553.205 560.424 561.798 549.307 572.1 539.004C641.084 470.02 749.667 466.617 814.457 531.407C879.696 595.749 876.292 704.332 807.308 773.316Z" fill="#526D84"/>
    <path d="M713.797 711.161C771.565 695.466 896.091 598.706 970.898 523.899C1086.02 408.777 1059.48 286.38 1059.48 286.38C1059.48 286.38 937.087 259.843 821.965 374.966C747.158 449.773 650.846 573.851 634.703 632.067L713.797 711.161Z" fill="#526D84"/>
    <path d="M1045.19 410.057C1071.25 340.249 1059.48 286.38 1059.48 286.38C1059.48 286.38 1005.62 274.618 935.808 300.671L1045.19 410.057Z" fill="#526D84"/>
    <path d="M844.918 500.946C865.365 521.394 899.589 520.321 921.36 498.55C943.131 476.779 944.204 442.555 923.756 422.108C903.309 401.66 869.085 402.733 847.314 424.504C825.543 446.275 824.47 480.499 844.918 500.946Z" fill="#526D84"/>
    <path d="M938.249 458.102C938.358 454.627 938.046 450.731 937.286 447.284L832.178 450.579C831.2 454.081 830.644 458.004 830.535 461.478L938.249 458.102Z" fill="#526D84"/>
    <path d="M937.053 468.553L830.628 472.323C830.995 474.481 831.334 477.507 832.121 480.086L934.623 476.873C936.021 473.792 936.524 471.606 937.053 468.553Z" fill="#526D84"/>
</svg>