<svg width="1651" height="1040" viewBox="0 0 1651 1040" fill="none" xmlns="http://www.w3.org/2000/svg">
    <rect width="1651" height="1040" fill="#1E1E1E"/>
    <path d="M580.631 615.511L812.808 770.325C820.724 775.193 829.191 775.257 837.192 770.325L1069.37 615.511C1075.32 611.553 1079 604.462 1079 597.371V442.6C1079 435.509 1075.32 428.418 1069.37 424.46L837.192 269.667C829.276 264.799 820.809 264.756 812.808 269.667L580.631 424.46C574.683 428.418 571 435.509 571 442.6V597.371C571 604.462 574.683 611.553 580.631 615.511V615.511ZM803.177 711.354L632.235 597.392L708.499 546.359L803.177 609.584V711.354ZM846.823 711.354V609.584L941.501 546.359L1017.76 597.392L846.823 711.354ZM1035.35 556.54L980.639 519.985L1035.35 483.409V556.54ZM846.823 328.638L1017.76 442.6L941.501 493.633L846.823 430.408V328.638ZM825 468.381L902.11 519.985L825 571.59L747.89 519.985L825 468.381ZM803.177 328.638V430.408L708.499 493.633L632.235 442.6L803.177 328.638ZM614.667 483.452V483.43L669.383 520.007L614.667 556.583V483.452Z" fill="#363636"/>
</svg>