<svg width="1651" height="1040" viewBox="0 0 1651 1040" fill="none" xmlns="http://www.w3.org/2000/svg">
    <rect width="1651" height="1040" fill="#1E1E1E"/>
    <path d="M825.5 267C679.364 267 561 383.388 561 526.933C561 641.8 636.779 739.208 741.852 773.552C755.077 775.998 759.926 767.953 759.926 761.053C759.926 754.881 759.706 738.525 759.595 716.857C686.02 732.529 670.503 681.984 670.503 681.984C658.468 651.984 641.077 643.96 641.077 643.96C617.118 627.846 642.929 628.177 642.929 628.177C669.489 629.985 683.441 654.959 683.441 654.959C707.026 694.703 745.356 683.219 760.477 676.584C762.858 659.765 769.668 648.324 777.229 641.822C718.488 635.319 656.749 612.967 656.749 513.376C656.749 485.007 666.998 461.817 683.97 443.632C680.995 437.063 672.068 410.633 686.285 374.835C686.285 374.835 708.437 367.869 759.022 401.485C780.182 395.71 802.665 392.844 825.147 392.712C847.63 392.844 870.112 395.71 891.272 401.485C941.527 367.869 963.679 374.835 963.679 374.835C977.896 410.633 968.969 437.063 966.324 443.632C983.186 461.817 993.435 485.007 993.435 513.376C993.435 613.232 931.609 635.209 872.757 641.601C882.015 649.405 890.611 665.342 890.611 689.699C890.611 724.484 890.28 752.434 890.28 760.877C890.28 767.688 894.909 775.822 908.465 773.221C1014.29 739.098 1090 641.623 1090 526.933C1090 383.388 971.57 267 825.5 267V267Z" fill="#363636"/>
</svg>